<?xml version="1.0" encoding="UTF-8"?>
<svg width="96px" height="96px" viewBox="0 0 96 96" version="1.1" xmlns="http://www.w3.org/2000/svg" xmlns:xlink="http://www.w3.org/1999/xlink">
    <title>EmptyPage/37 NoShopping@1x</title>
    <g id="EmptyPage/37-NoShopping" stroke="none" stroke-width="1" fill="none" fill-rule="evenodd">
        <g id="EmptyPage/37-NoShopping" fill="#A1A7B3">
            <g id="编组" transform="translate(3.531152, 17.228516)">
                <path d="M8.83330078,6.20859375 L3.10429688,6.20859375 C1.72509446,6.20859375 0.555965753,5.30916129 0.151468785,4.06485442 C0.054039391,3.8293003 4.54780582e-13,3.57057031 4.54747351e-13,3.29921875 L0.00214117431,3.22067607 C0.000717893105,3.18205901 4.77182463e-18,3.14326178 0,3.10429688 C-2.09960284e-16,1.38984105 1.38984105,-1.29148784e-16 3.10429688,0 L8.83330078,0 C9.87433151,4.63732412e-16 10.7956764,0.512436008 11.3588545,1.29882711 L15.03125,1.29921875 C15.0869599,1.29921875 15.1421378,1.30149653 15.1966957,1.30596403 C16.0848433,1.23510665 16.9301978,1.7687364 17.2353631,2.6280366 L17.2753445,2.75338403 L31.437,52.6712188 L65.7973357,52.6718529 C67.0731842,52.6718529 68.1074637,53.7061324 68.1074637,54.9819809 C68.1074637,56.1738017 67.2049337,57.1548253 66.0460488,57.2788766 C65.1302106,56.7224196 64.0560992,56.4033442 62.9074637,56.4033442 C61.7491476,56.4033442 60.666617,56.7278206 59.7458083,57.290837 L37.2236259,57.2909632 C36.3027726,56.7278691 35.2201668,56.4033442 34.0617641,56.4033442 C32.903448,56.4033442 31.8209174,56.7278206 30.9001086,57.290837 L30.4481163,57.2921089 C29.74584,57.2921089 29.116755,56.9787401 28.6930641,56.4842056 C28.4440634,56.2667259 28.2464196,55.9840956 28.1288947,55.653163 L28.0889133,55.5278156 L13.839,5.29900482 L11.027368,5.30036798 C10.4656801,5.86154652 9.69001904,6.20859375 8.83330078,6.20859375 Z" id="形状结合" opacity="0.5"></path>
                <path d="M34.0617641,57.2921089 C36.9336448,57.2921089 39.2617641,59.6115653 39.2617641,62.4727598 C39.2617641,65.3339543 36.9336448,67.6534107 34.0617641,67.6534107 C31.1898834,67.6534107 28.8617641,65.3339543 28.8617641,62.4727598 C28.8617641,59.6115653 31.1898834,57.2921089 34.0617641,57.2921089 Z M34.0617641,60.0964695 C32.7444736,60.0964695 31.6765987,61.1603709 31.6765987,62.4727598 C31.6765987,63.7851487 32.7444736,64.8490501 34.0617641,64.8490501 C35.3790546,64.8490501 36.4469295,63.7851487 36.4469295,62.4727598 C36.4469295,61.1603709 35.3790546,60.0964695 34.0617641,60.0964695 Z M34.0617641,61.2846147 C34.7204093,61.2846147 35.2543468,61.8165654 35.2543468,62.4727598 C35.2543468,63.1289542 34.7204093,63.6609049 34.0617641,63.6609049 C33.4031189,63.6609049 32.8691814,63.1289542 32.8691814,62.4727598 C32.8691814,61.8165654 33.4031189,61.2846147 34.0617641,61.2846147 Z" id="形状结合备份-2" opacity="0.800000012"></path>
                <path d="M62.9074637,57.2921089 C65.7793444,57.2921089 68.1074637,59.6115653 68.1074637,62.4727598 C68.1074637,65.3339543 65.7793444,67.6534107 62.9074637,67.6534107 C60.035583,67.6534107 57.7074637,65.3339543 57.7074637,62.4727598 C57.7074637,59.6115653 60.035583,57.2921089 62.9074637,57.2921089 Z M62.9074637,60.0964695 C61.5901732,60.0964695 60.5222983,61.1603709 60.5222983,62.4727598 C60.5222983,63.7851487 61.5901732,64.8490501 62.9074637,64.8490501 C64.2247542,64.8490501 65.2926291,63.7851487 65.2926291,62.4727598 C65.2926291,61.1603709 64.2247542,60.0964695 62.9074637,60.0964695 Z M62.9074637,61.2846147 C63.566109,61.2846147 64.1000464,61.8165654 64.1000464,62.4727598 C64.1000464,63.1289542 63.566109,63.6609049 62.9074637,63.6609049 C62.2488185,63.6609049 61.714881,63.1289542 61.714881,62.4727598 C61.714881,61.8165654 62.2488185,61.2846147 62.9074637,61.2846147 Z" id="形状结合备份-2" opacity="0.800000012"></path>
            </g>
            <path d="M51.6411051,83.4726276 C55.999248,83.4797867 60.0094844,83.5927709 63.2327892,83.778666 C64.1147303,84.4700329 65.2283921,84.8819263 66.4386161,84.8819263 C67.3114661,84.8819263 68.1340871,84.6676705 68.8563832,84.2890682 C70.1976003,84.4884858 70.9523438,84.7141974 70.9523438,84.953125 C70.9523438,85.770981 62.1089182,86.4339844 51.2,86.4339844 L50.7588949,86.4336224 C40.0536852,86.4160371 31.4476563,85.7599289 31.4476563,84.953125 C31.4476563,84.6437625 32.7129815,84.3565564 34.8767979,84.1190089 C35.6670939,84.6031792 36.5973311,84.8819263 37.5929164,84.8819263 C38.8547386,84.8819263 40.0115892,84.4341618 40.91212,83.6894176 C43.9081702,83.5514158 47.4307945,83.4722656 51.2,83.4722656 Z" id="形状结合" fill-opacity="0.15"></path>
            <path d="M85.3042969,30.2046875 C86.6297803,30.2046875 87.7042969,31.2792041 87.7042969,32.6046875 C87.7042969,33.9301709 86.6297803,35.0046875 85.3042969,35.0046875 L25.0690655,35.0046875 L23.7111523,30.2248705 C23.8134929,30.2115555 23.9178585,30.2046875 24.0238281,30.2046875 L85.3042969,30.2046875 Z" id="形状结合" opacity="0.200000003"></path>
            <path d="M25.0632812,35.0046875 L84.734375,35.0046875 C82.0286458,46.9716146 79.538151,54.2766927 77.2628906,56.9199219 C73.85,60.8847656 70.1777344,63.353125 63.7894531,63.353125 C59.530599,63.353125 49.3070312,63.353125 33.11875,63.353125 L25.0632812,35.0046875 Z" id="路径-20" opacity="0.300000012"></path>
            <rect id="矩形备份" fill-opacity="0.8" opacity="0.200000003" x="45.715625" y="46.990625" width="16.5523438" height="6.4" rx="3.2"></rect>
            <path d="M24.3469832,13.3277679 C25.2484992,13.7757788 25.9752657,14.2420698 26.5280968,14.725572 C26.661423,14.8421781 26.896808,14.8564502 27.0538438,14.7574495 C27.2108797,14.6584488 27.2301002,14.4836649 27.096774,14.3670588 C26.4964617,13.8420298 25.7178979,13.3425059 24.7618966,12.8674184 C24.5906989,12.7823412 24.3590341,12.8164253 24.244459,12.9435473 C24.1298838,13.0706693 24.1757854,13.2426907 24.3469832,13.3277679 Z M27.4581274,17.185213 C27.60054,17.8920705 27.5176162,18.6360667 27.2055662,19.4219004 C27.1429658,19.5795468 27.2312734,19.7539837 27.4028068,19.8115161 C27.5743402,19.8690485 27.7641432,19.7878901 27.8267436,19.6302438 C28.1779577,18.7457831 28.2730818,17.8923248 28.108326,17.0745677 C28.0750807,16.9095561 27.9025781,16.8005566 27.7230307,16.8311104 C27.5434833,16.8616643 27.4248821,17.0202014 27.4581274,17.185213 Z M25.4421539,22.0243318 L24.9047494,23.0376113 L24.596353,23.6295644 L24.3579391,24.0975304 L24.2104098,24.3934722 C24.1293143,24.5577239 24.2240924,24.7454089 24.4221027,24.8126785 C24.620113,24.8799481 24.8463729,24.8013286 24.9274684,24.637077 L25.0732575,24.344632 L25.3092041,23.881525 L25.7036189,23.1263974 L26.150975,22.283996 C26.2374166,22.1216312 26.1488164,21.9318808 25.9530809,21.8601765 C25.7573454,21.7884723 25.5285956,21.8619671 25.4421539,22.0243318 Z M23.5679051,27.0580812 C23.277105,28.0285028 23.1446173,28.8533059 23.1881764,29.5585201 C23.1984952,29.7255797 23.346704,29.8529073 23.5192101,29.8429143 C23.6917161,29.8329213 23.8231948,29.6893918 23.812876,29.5223322 C23.7742413,28.896843 23.896371,28.1365236 24.1689247,27.2269918 C24.2170888,27.0662649 24.1215906,26.898158 23.9556237,26.8515146 C23.7896567,26.8048713 23.6160692,26.8973543 23.5679051,27.0580812 Z M24.2950712,31.5097988 C24.9540394,32.1658533 25.7894781,32.608592 26.7959435,32.8401983 C26.972541,32.8808366 27.1441058,32.74774 27.1791442,32.5429186 C27.2141827,32.3380972 27.0994265,32.1391128 26.922829,32.0984745 C26.0216716,31.8911015 25.2891201,31.5028876 24.719731,30.9360161 C24.5831187,30.8000079 24.3773093,30.8181971 24.2600427,30.9766428 C24.1427762,31.1350886 24.1584589,31.3737906 24.2950712,31.5097988 Z M30.5120644,32.8468028 C31.2605034,32.7949118 32.0736908,32.6728108 32.951913,32.4807402 C33.1156827,32.4449231 33.2210194,32.275329 33.1871892,32.1019411 C33.153359,31.9285532 32.9931727,31.81703 32.829403,31.852847 C31.9774059,32.0391821 31.1916733,32.1571607 30.4724917,32.2070233 C30.3056217,32.2185928 30.1792056,32.3711912 30.1901333,32.5478615 C30.201061,32.7245317 30.3451945,32.8583723 30.5120644,32.8468028 Z M35.5985644,32.828969 C36.3592288,32.5082448 37.1574871,32.1339762 37.9933973,31.7061799 C38.1560156,31.6229562 38.240256,31.368595 38.1815534,31.1380482 C38.1228508,30.9075014 37.9434348,30.7880724 37.7808165,30.8712961 C36.9558626,31.2934853 36.1689339,31.6624419 35.4200884,31.9781827 C35.2543727,32.0480546 35.1599867,32.2951519 35.2092715,32.53009 C35.2585562,32.7650282 35.4328486,32.8988408 35.5985644,32.828969 Z M40.6121559,29.8297368 C41.4018017,29.6094038 42.1816003,29.4449701 42.9516223,29.3363146 C43.1193987,29.3126402 43.2316327,29.1836605 43.2023038,29.0482305 C43.1729749,28.9128005 43.0131894,28.8222046 42.845413,28.8458791 C42.0424787,28.9591787 41.2308676,29.1303206 40.41065,29.359184 C40.2496754,29.4041003 40.1642883,29.5458491 40.2199326,29.6757887 C40.2755769,29.8057282 40.4511812,29.8746532 40.6121559,29.8297368 Z M45.5070697,29.5281139 C46.2974347,29.541657 47.0773407,29.6440962 47.8470903,29.8354608 C48.0100086,29.8759633 48.170985,29.7587743 48.206641,29.5737119 C48.2422971,29.3886496 48.1391307,29.2057931 47.9762124,29.1652906 C47.1669934,28.9641137 46.3468815,28.8563935 45.5161791,28.8421592 C45.3494235,28.8393018 45.2122023,28.9905416 45.2096868,29.1799627 C45.2071713,29.3693839 45.3403141,29.5252565 45.5070697,29.5281139 Z M50.4171391,30.5092524 C51.1904384,30.8570477 51.9545377,31.2842787 52.7094889,31.7911391 C52.8636589,31.894646 53.0688587,31.8478288 53.1678155,31.6865701 C53.2667723,31.5253114 53.2220132,31.3106765 53.0678432,31.2071696 C52.2827114,30.6800466 51.4864788,30.2348488 50.6791971,29.8717698 C50.5108995,29.7960771 50.3158036,29.8774214 50.2434383,30.0534574 C50.171073,30.2294933 50.2488415,30.4335597 50.4171391,30.5092524 Z M55.3589559,33.552859 C56.101825,34.2084072 56.8366383,34.9331669 57.5633359,35.7271996 C57.7098846,35.8873274 57.9535379,35.8936185 58.1075507,35.7412512 C58.2615636,35.5888839 58.2676145,35.3355566 58.1210657,35.1754288 C57.3758811,34.3611961 56.6212588,33.6168985 55.8571389,32.9425974 C55.6950552,32.7995659 55.4521383,32.8202277 55.3145689,32.9887467 C55.1769994,33.1572658 55.1968722,33.4098275 55.3589559,33.552859 Z M58.3334193,37.5184574 C59.059697,38.297873 59.8079937,39.0430125 60.5783017,39.753856 C60.7374834,39.9007495 60.9841911,39.8892359 61.1293388,39.7281396 C61.2744865,39.5670433 61.2631097,39.3173683 61.103928,39.1704747 C60.3481652,38.4730537 59.6138489,37.7418355 58.9009714,36.9768006 C58.7531747,36.8181903 58.5063109,36.8108653 58.3495857,36.9604397 C58.1928605,37.1100142 58.1856226,37.3598472 58.3334193,37.5184574 Z M62.3689349,41.396889 C63.1218438,41.895733 63.8954624,42.3673029 64.6897735,42.811586 C64.8528029,42.9027735 65.0716787,42.8640309 65.1786464,42.7250521 C65.285614,42.5860732 65.240167,42.3994866 65.0771375,42.3082991 C64.2985913,41.8728337 63.5403019,41.4106079 62.8022523,40.9216091 C62.6482952,40.819604 62.4264869,40.8433075 62.3068296,40.9745524 C62.1871723,41.1057974 62.2149778,41.2948839 62.3689349,41.396889 Z M67.4098109,43.5374958 C68.1813664,44.0013387 68.9718668,44.432839 69.7812928,44.8319916 C69.9464558,44.9134386 70.1404051,44.8322693 70.2144906,44.650695 C70.2885761,44.4691206 70.2147432,44.2558997 70.0495801,44.1744528 C69.2558238,43.7830273 68.4807452,43.3599451 67.7243249,42.9052013 C67.5655028,42.8097208 67.3663457,42.8738625 67.2794951,43.0484658 C67.1926444,43.2230692 67.2509888,43.4420154 67.4098109,43.5374958 Z M72.4524617,46.3031713 C73.2358028,46.5071959 74.036106,46.6920983 74.853357,46.8578812 C75.0193831,46.8915603 75.1917358,46.8215521 75.2383176,46.7015135 C75.2848993,46.5814749 75.1880706,46.4568621 75.0220445,46.423183 C74.2192005,46.2603226 73.433223,46.0787301 72.6640977,45.878408 C72.5018661,45.836154 72.3229751,45.8969869 72.2645334,46.0142821 C72.2060917,46.1315772 72.2902301,46.2609173 72.4524617,46.3031713 Z M77.49476,47.452099 C78.2846419,47.6123998 79.0895116,47.7499069 79.9093616,47.864627 C80.0755828,47.887886 80.2297026,47.7755796 80.2535977,47.6137835 C80.2774929,47.4519875 80.1621149,47.3019708 79.9958936,47.2787118 C79.1885572,47.1657427 78.3962223,47.0303771 77.6188815,46.8726214 C77.4544866,46.8392587 77.2934327,46.9419333 77.2591574,47.1019516 C77.2248822,47.2619699 77.3303651,47.4187363 77.49476,47.452099 Z" id="路径-24" opacity="0.300000012" transform="translate(51.718395, 30.344137) scale(-1, 1) rotate(-5.000000) translate(-51.718395, -30.344137) "></path>
            <path d="M72.7152058,21.0310262 C71.7547387,22.4536814 71.0485888,23.3086293 70.5967562,23.59587 C69.3133876,24.4117378 68.155949,24.5949401 67.3713052,24.5949401 C65.5727818,24.5949401 69.2795378,24.1731067 70.5967562,22.7442604 C71.4749018,21.7916962 72.5141902,20.3504752 73.7146214,18.4205975 L72.7152058,18.4205975 L71.6110356,19.7684614 C71.2660197,19.3436926 70.8198487,19.1313082 70.2725226,19.1313082 C69.4515335,19.1313082 67.3309605,19.4814835 66.5187584,21.7372475 C65.9772903,23.2410902 64.8643906,24.5648954 63.1800591,25.7086631 C65.6136356,26.9159735 67.9777901,26.9159735 70.2725226,25.7086631 C72.5672551,24.5013528 73.3814828,22.9421405 72.7152058,21.0310262 Z" id="路径-14" opacity="0.400000006"></path>
            <path d="M78.2118282,45.7561537 C77.6782354,46.5690995 77.2859299,47.0576412 77.0349117,47.2217788 C76.3219292,47.6879889 75.6789078,47.7926759 75.2429945,47.7926759 C74.2438149,47.7926759 76.3031237,47.5516283 77.0349117,46.7351447 C77.5227704,46.1908223 78.1001529,45.3672674 78.7670591,44.2644802 L78.2118282,44.2644802 L77.5984003,45.0346881 C77.4067248,44.7919631 77.158852,44.6706006 76.854782,44.6706006 C76.3986769,44.6706006 75.2205808,44.8707007 74.7693574,46.1597088 C74.4685418,47.0190474 73.8502642,47.7755076 72.9145245,48.4290891 C74.2665114,49.1189807 75.5799306,49.1189807 76.854782,48.4290891 C78.1296334,47.7391975 78.5819821,46.848219 78.2118282,45.7561537 Z" id="路径-14备份" opacity="0.300000012" transform="translate(75.840792, 46.605494) rotate(-62.000000) translate(-75.840792, -46.605494) "></path>
            <path d="M19.9567644,50.9046385 C19.316453,51.9208207 18.8456865,52.5314978 18.5444647,52.7366698 C17.6888857,53.3194325 16.9172599,53.4502912 16.394164,53.4502912 C15.1951484,53.4502912 17.6663191,53.1489817 18.5444647,52.1283772 C19.1298951,51.4479742 19.822754,50.4185307 20.6230415,49.0400465 L19.9567644,49.0400465 L19.220651,50.0028065 C18.9906404,49.6994002 18.693193,49.5476971 18.328309,49.5476971 C17.7809829,49.5476971 16.3672676,49.7978222 15.8257995,51.4090823 C15.4648208,52.4832556 14.7228876,53.4288308 13.6,54.2458077 C15.2223843,55.1081722 16.7984873,55.1081722 18.328309,54.2458077 C19.8581306,53.3834432 20.4009491,52.2697201 19.9567644,50.9046385 Z" id="路径-14备份-2" opacity="0.300000012" transform="translate(17.111521, 51.966314) rotate(80.000000) translate(-17.111521, -51.966314) "></path>
        </g>
    </g>
</svg>